<?xml version="1.0" standalone="no"?><svg xmlns="http://www.w3.org/2000/svg" viewBox="0 0 1440 320"><path fill="#597FA5" fill-opacity="1" d="M0,96L30,128C60,160,120,224,180,256C240,288,300,288,360,256C420,224,480,160,540,149.3C600,139,660,181,720,186.7C780,192,840,160,900,138.7C960,117,1020,107,1080,112C1140,117,1200,139,1260,165.3C1320,192,1380,224,1410,240L1440,256L1440,0L1410,0C1380,0,1320,0,1260,0C1200,0,1140,0,1080,0C1020,0,960,0,900,0C840,0,780,0,720,0C660,0,600,0,540,0C480,0,420,0,360,0C300,0,240,0,180,0C120,0,60,0,30,0L0,0Z"></path></svg>